Coordinates
version=1
nRows=11
nColumns=63
inDegrees=yes

Units are S.I. units (second, meters, Newtons, ...)
If the header above contains a line with 'inDegrees', this indicates whether rotational values are in degrees (yes) or radians (no).

endheader
time	pelvis_tilt	pelvis_list	pelvis_rotation	pelvis_tx	pelvis_ty	pelvis_tz	hip_flexion_r	hip_adduction_r	hip_rotation_r	knee_angle_r	knee_angle_r_beta	ankle_angle_r	subtalar_angle_r	mtp_angle_r	hip_flexion_l	hip_adduction_l	hip_rotation_l	knee_angle_l	knee_angle_l_beta	ankle_angle_l	subtalar_angle_l	mtp_angle_l	L5_S1_Flex_Ext	L5_S1_Lat_Bending	L5_S1_axial_rotation	L4_L5_Flex_Ext	L4_L5_Lat_Bending	L4_L5_axial_rotation	L3_L4_Flex_Ext	L3_L4_Lat_Bending	L3_L4_axial_rotation	L2_L3_Flex_Ext	L2_L3_Lat_Bending	L2_L3_axial_rotation	L1_L2_Flex_Ext	L1_L2_Lat_Bending	L1_L2_axial_rotation	L1_T12_Flex_Ext	L1_T12_Lat_Bending	L1_T12_axial_rotation	Abs_r3	Abs_r2	Abs_r1	Abs_t1	Abs_t2	neck_flexion	neck_bending	neck_rotation	arm_flex_r	arm_add_r	arm_rot_r	elbow_flex_r	pro_sup_r	wrist_flex_r	wrist_dev_r	arm_flex_l	arm_add_l	arm_rot_l	elbow_flex_l	pro_sup_l	wrist_flex_l	wrist_dev_l
3.783333	6.066905	-4.129969	88.448471	0.254144	0.981193	0.446167	9.332142	8.059099	-3.634154	6.109645	0.106633	17.222008	-11.075434	0.000000	7.590897	-8.881514	-10.012178	6.244287	0.108983	25.802048	10.158040	0.000000	0.059573	0.697869	-0.673148	0.110634	0.928166	-0.715220	0.097873	1.696799	-0.715220	0.068086	1.696799	-0.589004	0.055320	1.423095	-0.546933	0.034040	1.080999	-0.504861	0.425526	7.894434	-3.743847	0.000000	0.000000	23.980778	-3.500065	1.307426	53.067682	-9.857254	17.831868	111.672157	86.890441	9.365867	6.046295	-11.543576	-6.404748	-2.561006	125.134056	82.865903	-12.900418	7.110993
3.800000	6.037430	-3.996095	88.865262	0.253678	0.981313	0.446855	9.223812	7.985995	-4.095311	6.098052	0.106431	16.943017	-11.406768	0.000000	7.501407	-8.778033	-9.514243	6.028731	0.105221	25.838597	10.463474	0.000000	0.052968	0.700284	-0.617045	0.098366	0.931377	-0.655611	0.087020	1.702670	-0.655611	0.060537	1.702670	-0.539915	0.049186	1.428019	-0.501349	0.030266	1.084739	-0.462784	0.378342	7.921750	-3.431821	0.000000	0.000000	23.254708	-3.940728	0.569131	53.772635	-10.074367	18.031032	111.525568	86.902405	8.629231	6.972863	-11.078345	-6.703600	-1.474796	124.847009	83.098621	-13.171399	7.428212
3.816667	6.004437	-3.832887	89.367751	0.253144	0.981462	0.447487	9.070607	7.901949	-4.576551	6.053257	0.105649	16.596341	-11.814078	0.000000	7.392302	-8.660968	-8.889156	5.801759	0.101260	25.874057	10.748574	0.000000	0.047340	0.702328	-0.558355	0.087915	0.934097	-0.593252	0.077774	1.707641	-0.593252	0.054105	1.707641	-0.488561	0.043960	1.432188	-0.453664	0.027050	1.087907	-0.418766	0.338143	7.944880	-3.105404	0.000000	0.000000	22.483080	-4.370091	-0.119710	54.491972	-10.351139	18.350214	111.324662	86.952614	7.487710	7.841195	-10.568087	-7.032702	-0.333021	124.468585	83.305695	-13.355523	7.676427
3.833333	5.980999	-3.646995	89.992674	0.252498	0.981627	0.448027	8.876820	7.818207	-5.131157	5.962795	0.104070	16.211781	-12.274583	0.000000	7.278393	-8.540504	-8.084374	5.567299	0.097168	25.900023	10.971796	0.000000	0.042541	0.704997	-0.505370	0.079002	0.937646	-0.536955	0.069890	1.714129	-0.536955	0.048620	1.714129	-0.442198	0.039503	1.437630	-0.410613	0.024308	1.092040	-0.379027	0.303864	7.975065	-2.810714	0.000000	0.000000	21.721170	-4.771796	-0.766427	55.199852	-10.688051	18.763974	111.141381	87.036217	6.039276	8.794682	-10.007562	-7.381535	0.873032	124.006261	83.476471	-13.529849	7.842588
3.850000	5.974025	-3.449227	90.712922	0.251741	0.981803	0.448436	8.657150	7.735795	-5.872303	5.839609	0.101920	15.886468	-12.546573	0.000000	7.162164	-8.432231	-7.222201	5.333767	0.093092	25.917737	11.217263	0.000000	0.038674	0.709249	-0.455252	0.071821	0.943301	-0.483705	0.063537	1.724467	-0.483705	0.044200	1.724467	-0.398345	0.035913	1.446300	-0.369892	0.022098	1.098626	-0.341439	0.276244	8.023162	-2.531972	0.000000	0.000000	21.025092	-5.134841	-1.366397	55.863187	-11.074696	19.223049	111.015626	87.149562	4.478840	9.851667	-9.403078	-7.734094	2.145613	123.462139	83.602681	-13.727314	7.862558
3.866667	5.970973	-3.248602	91.445426	0.250999	0.981987	0.448711	8.419729	7.660245	-6.570947	5.690359	0.099315	15.599464	-12.817620	0.000000	7.028170	-8.325956	-6.289217	5.092616	0.088883	25.865648	11.287506	0.000000	0.035409	0.711398	-0.387763	0.065758	0.946159	-0.411999	0.058173	1.729692	-0.411999	0.040469	1.729692	-0.339293	0.032881	1.450682	-0.315058	0.020233	1.101955	-0.290823	0.252922	8.047473	-2.156624	0.000000	0.000000	20.400342	-5.449818	-2.123903	56.453881	-11.561969	19.685351	111.025779	87.277856	2.784207	11.091398	-8.697406	-8.113873	3.537831	122.864466	83.714881	-14.012325	7.899631
3.883333	5.992547	-3.041679	92.255030	0.250167	0.982166	0.448837	8.160893	7.598151	-7.390662	5.511609	0.096196	15.402167	-12.940796	0.000000	6.895291	-8.237286	-5.251105	4.860840	0.084838	25.748118	11.216798	0.000000	0.031190	0.715241	-0.331986	0.057922	0.951271	-0.352735	0.051242	1.739037	-0.352735	0.035647	1.739037	-0.290488	0.028963	1.458520	-0.269739	0.017822	1.107909	-0.248990	0.222785	8.090951	-1.846408	0.000000	0.000000	19.891181	-5.677147	-2.848602	57.017938	-12.059633	20.190061	111.078425	87.369100	1.069245	12.413127	-7.970429	-8.474344	4.940980	122.231001	83.695050	-14.258810	7.774764
3.900000	6.022081	-2.855588	93.062457	0.249339	0.982316	0.448807	7.909049	7.551162	-8.128790	5.314280	0.092752	15.255657	-13.105454	0.000000	6.776854	-8.164131	-4.279184	4.649051	0.081141	25.577186	11.109937	0.000000	0.029075	0.718723	-0.286230	0.053995	0.955902	-0.304120	0.047767	1.747504	-0.304120	0.033230	1.747504	-0.250452	0.026999	1.465620	-0.232562	0.016613	1.113302	-0.214673	0.207679	8.130341	-1.591927	0.000000	0.000000	19.515221	-5.807891	-3.531320	57.561723	-12.489545	20.698928	111.092018	87.384916	-0.431555	13.728786	-7.286245	-8.799474	6.288340	121.630153	83.817035	-14.575939	7.552807
3.916667	6.071282	-2.681367	93.838196	0.248545	0.982452	0.448583	7.652860	7.533010	-8.759225	5.105001	0.089099	15.157409	-13.288986	0.000000	6.662251	-8.121470	-3.355252	4.466788	0.077960	25.377679	10.917488	0.000000	0.026848	0.722869	-0.255098	0.049859	0.961416	-0.271042	0.044108	1.757584	-0.271042	0.030684	1.757584	-0.223211	0.024931	1.474075	-0.207267	0.015341	1.119724	-0.191323	0.191771	8.177239	-1.418778	0.000000	0.000000	19.269666	-5.849187	-4.238840	58.106928	-12.826342	21.230490	111.030143	87.319075	-1.751576	15.061043	-6.686633	-9.072735	7.521831	121.091706	83.988220	-14.901622	7.206989
3.933333	6.140697	-2.529088	94.594226	0.247755	0.982554	0.448153	7.404146	7.542758	-9.293429	4.882481	0.085215	15.091204	-13.516709	0.000000	6.569050	-8.102707	-2.419806	4.319488	0.075389	25.167178	10.602870	0.000000	0.024913	0.728672	-0.258944	0.046265	0.969134	-0.275128	0.040929	1.771694	-0.275128	0.028473	1.771694	-0.226576	0.023134	1.485909	-0.210392	0.014235	1.128714	-0.194208	0.177948	8.242888	-1.440171	0.000000	0.000000	19.178057	-5.764504	-4.821784	58.675001	-12.978758	21.809101	110.789934	87.214181	-2.816147	16.246497	-6.267573	-9.269917	8.530149	120.687400	84.234297	-15.217190	6.742306
3.950000	6.228008	-2.402546	95.317312	0.246998	0.982630	0.447501	7.170095	7.578014	-9.794977	4.656006	0.081263	15.085523	-13.666596	0.000000	6.507862	-8.114821	-1.590221	4.224564	0.073733	24.997755	10.350236	0.000000	0.022955	0.735759	-0.304655	0.042630	0.978559	-0.323696	0.037713	1.788924	-0.323696	0.026235	1.788924	-0.266573	0.021316	1.500359	-0.247532	0.013116	1.139690	-0.228491	0.163965	8.323051	-1.694401	0.000000	0.000000	19.245153	-5.533525	-5.268832	59.257214	-12.921692	22.443760	110.323845	87.114982	-3.600745	17.094804	-6.074688	-9.375028	9.244195	120.464889	84.566999	-15.534056	6.232736
